<mxfile host="Electron" modified="2024-04-19T12:17:53.363Z" agent="Mozilla/5.0 (Windows NT 10.0; Win64; x64) AppleWebKit/537.36 (KHTML, like Gecko) draw.io/21.5.0 Chrome/112.0.5615.204 Electron/24.5.1 Safari/537.36" etag="d3LQHYm7tf-brA8KwWKp" version="21.5.0" type="device">
  <diagram name="Page-1" id="hzuFiFbZC7HQ7NsVrMPG">
    <mxGraphModel dx="808" dy="820" grid="1" gridSize="10" guides="1" tooltips="1" connect="1" arrows="1" fold="1" page="1" pageScale="1" pageWidth="850" pageHeight="1100" math="0" shadow="0">
      <root>
        <mxCell id="0" />
        <mxCell id="1" parent="0" />
        <mxCell id="5z2d2--lTR7cxvyjwxl8-17" style="edgeStyle=orthogonalEdgeStyle;rounded=0;orthogonalLoop=1;jettySize=auto;html=1;exitX=0.5;exitY=1;exitDx=0;exitDy=0;labelBackgroundColor=none;fontColor=default;" parent="1" source="5z2d2--lTR7cxvyjwxl8-3" target="5z2d2--lTR7cxvyjwxl8-11" edge="1">
          <mxGeometry relative="1" as="geometry" />
        </mxCell>
        <mxCell id="5z2d2--lTR7cxvyjwxl8-3" value="" style="image;html=1;image=img/lib/clip_art/networking/Cloud_128x128.png;sketch=1;hachureGap=4;jiggle=2;curveFitting=1;fontFamily=Lucida Console;fontSize=20;labelBackgroundColor=none;fillColor=#F2CC8F;strokeColor=#E07A5F;fontColor=#393C56;" parent="1" vertex="1">
          <mxGeometry x="1550" y="30" width="80" height="80" as="geometry" />
        </mxCell>
        <mxCell id="5z2d2--lTR7cxvyjwxl8-16" style="edgeStyle=orthogonalEdgeStyle;rounded=0;orthogonalLoop=1;jettySize=auto;html=1;exitX=0.5;exitY=1;exitDx=0;exitDy=0;exitPerimeter=0;labelBackgroundColor=none;fontColor=default;" parent="1" source="5z2d2--lTR7cxvyjwxl8-11" edge="1">
          <mxGeometry relative="1" as="geometry">
            <mxPoint x="1590" y="270" as="targetPoint" />
          </mxGeometry>
        </mxCell>
        <mxCell id="5z2d2--lTR7cxvyjwxl8-11" value="UDM PRO" style="sketch=0;aspect=fixed;pointerEvents=1;shadow=0;dashed=0;html=1;strokeColor=#E07A5F;labelPosition=center;verticalLabelPosition=bottom;verticalAlign=top;align=center;fillColor=#F2CC8F;shape=mxgraph.mscae.enterprise.firewall;labelBackgroundColor=none;fontColor=#393C56;" parent="1" vertex="1">
          <mxGeometry x="1565" y="153" width="50" height="44" as="geometry" />
        </mxCell>
        <mxCell id="5z2d2--lTR7cxvyjwxl8-40" style="edgeStyle=orthogonalEdgeStyle;rounded=0;orthogonalLoop=1;jettySize=auto;html=1;exitX=0;exitY=0.5;exitDx=0;exitDy=0;exitPerimeter=0;fontColor=#393C56;" parent="1" source="5z2d2--lTR7cxvyjwxl8-22" target="5z2d2--lTR7cxvyjwxl8-26" edge="1">
          <mxGeometry relative="1" as="geometry">
            <Array as="points">
              <mxPoint x="1440" y="294" />
            </Array>
          </mxGeometry>
        </mxCell>
        <mxCell id="5z2d2--lTR7cxvyjwxl8-41" value="192.168.40.0/24" style="edgeLabel;html=1;align=center;verticalAlign=middle;resizable=0;points=[];fontColor=#393C56;" parent="5z2d2--lTR7cxvyjwxl8-40" vertex="1" connectable="0">
          <mxGeometry x="-0.3676" y="2" relative="1" as="geometry">
            <mxPoint as="offset" />
          </mxGeometry>
        </mxCell>
        <mxCell id="5z2d2--lTR7cxvyjwxl8-22" value="24 Port Switch" style="outlineConnect=0;dashed=0;verticalLabelPosition=bottom;verticalAlign=top;align=center;html=1;shape=mxgraph.aws3.stack_aws_cloudformation;fillColor=#F2CC8F;strokeColor=#E07A5F;labelBackgroundColor=none;fontColor=#393C56;" parent="1" vertex="1">
          <mxGeometry x="1565" y="270" width="50" height="48.5" as="geometry" />
        </mxCell>
        <mxCell id="5z2d2--lTR7cxvyjwxl8-24" value="DMZ (10.70.0.0/24)" style="swimlane;whiteSpace=wrap;html=1;hachureGap=4;fontFamily=Lucida Console;fontSize=20;swimlaneLine=0;glass=1;fillColor=#ffe6cc;strokeColor=#d79b00;fontColor=#363636;" parent="1" vertex="1">
          <mxGeometry x="1375" y="410" width="305" height="648.5" as="geometry">
            <mxRectangle x="1140" y="290" width="210" height="40" as="alternateBounds" />
          </mxGeometry>
        </mxCell>
        <mxCell id="5z2d2--lTR7cxvyjwxl8-26" value="OPNSENSE&lt;br style=&quot;font-size: 12px;&quot;&gt;192.168.40.25&lt;br&gt;10.70.0.1&lt;br style=&quot;font-size: 12px;&quot;&gt;10.71.0.1&lt;br style=&quot;font-size: 12px;&quot;&gt;10.72.0.1&lt;br style=&quot;font-size: 12px;&quot;&gt;10.73.0.1&lt;br style=&quot;font-size: 12px;&quot;&gt;10.74.0.1&lt;br&gt;" style="sketch=0;pointerEvents=1;shadow=1;dashed=0;html=1;strokeColor=#d79b00;labelPosition=center;verticalLabelPosition=bottom;verticalAlign=top;outlineConnect=0;align=center;shape=mxgraph.office.concepts.firewall;fillColor=#ffe6cc;hachureGap=4;jiggle=2;curveFitting=1;fontFamily=Lucida Console;fontSize=12;" parent="5z2d2--lTR7cxvyjwxl8-24" vertex="1">
          <mxGeometry x="50" y="47" width="47" height="43" as="geometry" />
        </mxCell>
        <mxCell id="5z2d2--lTR7cxvyjwxl8-51" style="edgeStyle=orthogonalEdgeStyle;rounded=0;orthogonalLoop=1;jettySize=auto;html=1;exitX=0;exitY=0.75;exitDx=0;exitDy=0;exitPerimeter=0;entryX=0;entryY=0.25;entryDx=0;entryDy=0;entryPerimeter=0;fillColor=#0050ef;strokeColor=#001DBC;" parent="5z2d2--lTR7cxvyjwxl8-24" source="5z2d2--lTR7cxvyjwxl8-29" target="5z2d2--lTR7cxvyjwxl8-32" edge="1">
          <mxGeometry relative="1" as="geometry">
            <Array as="points">
              <mxPoint x="165" y="265" />
              <mxPoint x="165" y="442" />
            </Array>
          </mxGeometry>
        </mxCell>
        <mxCell id="5z2d2--lTR7cxvyjwxl8-52" value="8080" style="edgeLabel;html=1;align=center;verticalAlign=middle;resizable=0;points=[];" parent="5z2d2--lTR7cxvyjwxl8-51" vertex="1" connectable="0">
          <mxGeometry x="-0.1307" y="-2" relative="1" as="geometry">
            <mxPoint as="offset" />
          </mxGeometry>
        </mxCell>
        <mxCell id="5z2d2--lTR7cxvyjwxl8-29" value="NGINXPROXYMGR&lt;br style=&quot;font-size: 12px;&quot;&gt;10.70.0.10&lt;br&gt;1 CPU&lt;br&gt;1GB RAM&lt;br&gt;32GB HDD&lt;br&gt;Ubuntu 22.04" style="sketch=0;points=[[0,0,0],[0.25,0,0],[0.5,0,0],[0.75,0,0],[1,0,0],[0,1,0],[0.25,1,0],[0.5,1,0],[0.75,1,0],[1,1,0],[0,0.25,0],[0,0.5,0],[0,0.75,0],[1,0.25,0],[1,0.5,0],[1,0.75,0]];outlineConnect=0;gradientDirection=north;fillColor=#ffe6cc;strokeColor=#d79b00;dashed=0;verticalLabelPosition=bottom;verticalAlign=top;align=center;html=1;fontSize=12;fontStyle=0;aspect=fixed;shape=mxgraph.aws4.resourceIcon;resIcon=mxgraph.aws4.elastic_load_balancing;hachureGap=4;jiggle=2;curveFitting=1;fontFamily=Lucida Console;shadow=1;" parent="5z2d2--lTR7cxvyjwxl8-24" vertex="1">
          <mxGeometry x="200" y="230" width="47" height="47" as="geometry" />
        </mxCell>
        <mxCell id="5z2d2--lTR7cxvyjwxl8-62" style="edgeStyle=orthogonalEdgeStyle;rounded=0;orthogonalLoop=1;jettySize=auto;html=1;exitX=0;exitY=0.75;exitDx=0;exitDy=0;exitPerimeter=0;fillColor=#fa6800;strokeColor=#C73500;" parent="5z2d2--lTR7cxvyjwxl8-24" edge="1">
          <mxGeometry relative="1" as="geometry">
            <Array as="points">
              <mxPoint x="143" y="455" />
              <mxPoint x="143" y="70" />
            </Array>
            <mxPoint x="218" y="455.25" as="sourcePoint" />
            <mxPoint x="96.99999999999977" y="70" as="targetPoint" />
          </mxGeometry>
        </mxCell>
        <mxCell id="5z2d2--lTR7cxvyjwxl8-63" value="4822" style="edgeLabel;html=1;align=center;verticalAlign=middle;resizable=0;points=[];" parent="5z2d2--lTR7cxvyjwxl8-62" vertex="1" connectable="0">
          <mxGeometry x="0.2416" y="2" relative="1" as="geometry">
            <mxPoint as="offset" />
          </mxGeometry>
        </mxCell>
        <mxCell id="OtyDt1sM-D2kt1b6ObTi-2" style="edgeStyle=orthogonalEdgeStyle;rounded=0;orthogonalLoop=1;jettySize=auto;html=1;exitX=0;exitY=1;exitDx=0;exitDy=0;exitPerimeter=0;" edge="1" parent="5z2d2--lTR7cxvyjwxl8-24" source="5z2d2--lTR7cxvyjwxl8-32" target="5z2d2--lTR7cxvyjwxl8-26">
          <mxGeometry relative="1" as="geometry">
            <Array as="points">
              <mxPoint x="125" y="477" />
              <mxPoint x="125" y="80" />
            </Array>
          </mxGeometry>
        </mxCell>
        <mxCell id="OtyDt1sM-D2kt1b6ObTi-3" value="3306" style="edgeLabel;html=1;align=center;verticalAlign=middle;resizable=0;points=[];" vertex="1" connectable="0" parent="OtyDt1sM-D2kt1b6ObTi-2">
          <mxGeometry x="0.0885" relative="1" as="geometry">
            <mxPoint as="offset" />
          </mxGeometry>
        </mxCell>
        <mxCell id="5z2d2--lTR7cxvyjwxl8-32" value="VDI WEB&lt;br style=&quot;font-size: 12px;&quot;&gt;10.70.0.11&lt;br&gt;1 CPU&lt;br&gt;1GB RAM&lt;br&gt;32GB HDD&lt;br&gt;Ubuntu 22.04" style="sketch=0;points=[[0,0,0],[0.25,0,0],[0.5,0,0],[0.75,0,0],[1,0,0],[0,1,0],[0.25,1,0],[0.5,1,0],[0.75,1,0],[1,1,0],[0,0.25,0],[0,0.5,0],[0,0.75,0],[1,0.25,0],[1,0.5,0],[1,0.75,0]];outlineConnect=0;gradientDirection=north;fillColor=#ffe6cc;strokeColor=#d79b00;dashed=0;verticalLabelPosition=bottom;verticalAlign=top;align=center;html=1;fontSize=12;fontStyle=0;aspect=fixed;shape=mxgraph.aws4.resourceIcon;resIcon=mxgraph.aws4.workspaces;hachureGap=4;jiggle=2;curveFitting=1;fontFamily=Lucida Console;shadow=1;" parent="5z2d2--lTR7cxvyjwxl8-24" vertex="1">
          <mxGeometry x="200" y="430" width="47" height="47" as="geometry" />
        </mxCell>
        <mxCell id="5z2d2--lTR7cxvyjwxl8-43" value="" style="edgeStyle=orthogonalEdgeStyle;rounded=0;orthogonalLoop=1;jettySize=auto;html=1;fontColor=#393C56;fillColor=#d80073;strokeColor=#A50040;" parent="5z2d2--lTR7cxvyjwxl8-24" source="5z2d2--lTR7cxvyjwxl8-37" target="5z2d2--lTR7cxvyjwxl8-26" edge="1">
          <mxGeometry relative="1" as="geometry" />
        </mxCell>
        <mxCell id="5z2d2--lTR7cxvyjwxl8-44" value="7844" style="edgeLabel;html=1;align=center;verticalAlign=middle;resizable=0;points=[];fontColor=#393C56;" parent="5z2d2--lTR7cxvyjwxl8-43" vertex="1" connectable="0">
          <mxGeometry x="0.2316" relative="1" as="geometry">
            <mxPoint as="offset" />
          </mxGeometry>
        </mxCell>
        <mxCell id="5z2d2--lTR7cxvyjwxl8-49" value="" style="edgeStyle=orthogonalEdgeStyle;rounded=0;orthogonalLoop=1;jettySize=auto;html=1;entryX=1;entryY=0.5;entryDx=0;entryDy=0;entryPerimeter=0;fillColor=#008a00;strokeColor=#005700;" parent="5z2d2--lTR7cxvyjwxl8-24" source="5z2d2--lTR7cxvyjwxl8-37" target="5z2d2--lTR7cxvyjwxl8-29" edge="1">
          <mxGeometry relative="1" as="geometry">
            <mxPoint x="290.5" y="68.5" as="targetPoint" />
            <Array as="points">
              <mxPoint x="285" y="69" />
              <mxPoint x="285" y="254" />
              <mxPoint x="267" y="254" />
            </Array>
          </mxGeometry>
        </mxCell>
        <mxCell id="5z2d2--lTR7cxvyjwxl8-50" value="ALL REQUESTS" style="edgeLabel;html=1;align=center;verticalAlign=middle;resizable=0;points=[];" parent="5z2d2--lTR7cxvyjwxl8-49" vertex="1" connectable="0">
          <mxGeometry x="-0.2063" relative="1" as="geometry">
            <mxPoint x="-10" y="66" as="offset" />
          </mxGeometry>
        </mxCell>
        <mxCell id="5z2d2--lTR7cxvyjwxl8-37" value="CloudflareD&#xa;10.70.0.5&#xa;1 CPU&#xa;1GB RAM&#xa;32GB HDD&#xa;Ubuntu 22.04&#xa;" style="sketch=0;pointerEvents=1;shadow=1;dashed=0;strokeColor=#d79b00;fillColor=#ffe6cc;labelPosition=center;verticalLabelPosition=bottom;verticalAlign=top;align=center;outlineConnect=0;shape=mxgraph.veeam2.open_vpn;hachureGap=4;jiggle=2;curveFitting=1;fontFamily=Lucida Console;fontSize=12;" parent="5z2d2--lTR7cxvyjwxl8-24" vertex="1">
          <mxGeometry x="200" y="45" width="47" height="47" as="geometry" />
        </mxCell>
        <mxCell id="OtyDt1sM-D2kt1b6ObTi-5" value="" style="edgeStyle=orthogonalEdgeStyle;rounded=0;orthogonalLoop=1;jettySize=auto;html=1;entryX=1;entryY=0.5;entryDx=0;entryDy=0;entryPerimeter=0;" edge="1" parent="5z2d2--lTR7cxvyjwxl8-24">
          <mxGeometry relative="1" as="geometry">
            <mxPoint x="50" y="80" as="sourcePoint" />
            <mxPoint x="-88" y="160.4999999999999" as="targetPoint" />
            <Array as="points">
              <mxPoint x="-45" y="80" />
              <mxPoint x="-45" y="160" />
            </Array>
          </mxGeometry>
        </mxCell>
        <mxCell id="OtyDt1sM-D2kt1b6ObTi-7" value="3306" style="edgeLabel;html=1;align=center;verticalAlign=middle;resizable=0;points=[];" vertex="1" connectable="0" parent="OtyDt1sM-D2kt1b6ObTi-5">
          <mxGeometry x="0.1678" relative="1" as="geometry">
            <mxPoint as="offset" />
          </mxGeometry>
        </mxCell>
        <mxCell id="5z2d2--lTR7cxvyjwxl8-46" value="" style="edgeStyle=orthogonalEdgeStyle;rounded=0;orthogonalLoop=1;jettySize=auto;html=1;strokeColor=#A50040;fontColor=#393C56;fillColor=#d80073;entryX=0;entryY=1;entryDx=0;entryDy=0;entryPerimeter=0;" parent="1" source="5z2d2--lTR7cxvyjwxl8-26" target="5z2d2--lTR7cxvyjwxl8-22" edge="1">
          <mxGeometry relative="1" as="geometry">
            <mxPoint x="1448.5" y="385.5" as="targetPoint" />
            <Array as="points">
              <mxPoint x="1460" y="319" />
            </Array>
          </mxGeometry>
        </mxCell>
        <mxCell id="5z2d2--lTR7cxvyjwxl8-47" value="7844" style="edgeLabel;html=1;align=center;verticalAlign=middle;resizable=0;points=[];fontColor=#393C56;" parent="5z2d2--lTR7cxvyjwxl8-46" vertex="1" connectable="0">
          <mxGeometry x="0.3498" y="-2" relative="1" as="geometry">
            <mxPoint as="offset" />
          </mxGeometry>
        </mxCell>
        <mxCell id="5z2d2--lTR7cxvyjwxl8-54" value="Main Zone (10.72.0.0/24)" style="swimlane;whiteSpace=wrap;html=1;hachureGap=4;fontFamily=Lucida Console;fontSize=20;fillColor=#d5e8d4;strokeColor=#82b366;glass=1;rounded=0;fontColor=#363636;" parent="1" vertex="1">
          <mxGeometry x="940" y="410" width="380" height="470" as="geometry" />
        </mxCell>
        <mxCell id="5z2d2--lTR7cxvyjwxl8-55" style="edgeStyle=orthogonalEdgeStyle;rounded=0;orthogonalLoop=1;jettySize=auto;html=1;exitX=0;exitY=0.5;exitDx=0;exitDy=0;exitPerimeter=0;entryX=0;entryY=0.5;entryDx=0;entryDy=0;entryPerimeter=0;fillColor=#1ba1e2;strokeColor=#006EAF;" parent="5z2d2--lTR7cxvyjwxl8-54" source="5z2d2--lTR7cxvyjwxl8-57" target="5z2d2--lTR7cxvyjwxl8-58" edge="1">
          <mxGeometry relative="1" as="geometry">
            <Array as="points">
              <mxPoint x="80" y="103" />
              <mxPoint x="80" y="293" />
            </Array>
          </mxGeometry>
        </mxCell>
        <mxCell id="5z2d2--lTR7cxvyjwxl8-56" value="Lab Workstations&lt;br&gt;22, 3389, 590x 13389" style="edgeLabel;html=1;align=center;verticalAlign=middle;resizable=0;points=[];" parent="5z2d2--lTR7cxvyjwxl8-55" vertex="1" connectable="0">
          <mxGeometry x="-0.0975" relative="1" as="geometry">
            <mxPoint as="offset" />
          </mxGeometry>
        </mxCell>
        <mxCell id="5z2d2--lTR7cxvyjwxl8-57" value="VDI CONNECTOR&lt;br style=&quot;font-size: 12px;&quot;&gt;10.72.0.16&lt;br&gt;1 CPU&lt;br&gt;1GB RAM&lt;br&gt;32GB HDD&lt;br&gt;Ubuntu 22.04" style="sketch=0;points=[[0,0,0],[0.25,0,0],[0.5,0,0],[0.75,0,0],[1,0,0],[0,1,0],[0.25,1,0],[0.5,1,0],[0.75,1,0],[1,1,0],[0,0.25,0],[0,0.5,0],[0,0.75,0],[1,0.25,0],[1,0.5,0],[1,0.75,0]];outlineConnect=0;gradientDirection=north;fillColor=#d5e8d4;strokeColor=#82b366;dashed=0;verticalLabelPosition=bottom;verticalAlign=top;align=center;html=1;fontSize=12;fontStyle=0;aspect=fixed;shape=mxgraph.aws4.resourceIcon;resIcon=mxgraph.aws4.workspaces;hachureGap=4;jiggle=2;curveFitting=1;fontFamily=Lucida Console;" parent="5z2d2--lTR7cxvyjwxl8-54" vertex="1">
          <mxGeometry x="161.5" y="80.00000000000003" width="47" height="47" as="geometry" />
        </mxCell>
        <mxCell id="5z2d2--lTR7cxvyjwxl8-58" value="LAB WORKSTATIONS&lt;br style=&quot;font-size: 12px;&quot;&gt;10.72.0.20-.39&lt;br&gt;Total 8 CPU&lt;br&gt;Total 8GB RAM&lt;br&gt;128GB HDD&lt;br&gt;Kali" style="sketch=0;points=[[0,0,0],[0.25,0,0],[0.5,0,0],[0.75,0,0],[1,0,0],[0,1,0],[0.25,1,0],[0.5,1,0],[0.75,1,0],[1,1,0],[0,0.25,0],[0,0.5,0],[0,0.75,0],[1,0.25,0],[1,0.5,0],[1,0.75,0]];outlineConnect=0;gradientDirection=north;fillColor=#d5e8d4;strokeColor=#82b366;dashed=0;verticalLabelPosition=bottom;verticalAlign=top;align=center;html=1;fontSize=12;fontStyle=0;aspect=fixed;shape=mxgraph.aws4.resourceIcon;resIcon=mxgraph.aws4.workspaces;hachureGap=4;jiggle=2;curveFitting=1;fontFamily=Lucida Console;shadow=1;" parent="5z2d2--lTR7cxvyjwxl8-54" vertex="1">
          <mxGeometry x="161.5" y="270" width="47" height="47" as="geometry" />
        </mxCell>
        <mxCell id="5z2d2--lTR7cxvyjwxl8-64" value="" style="shape=flexArrow;endArrow=classic;html=1;rounded=0;" parent="5z2d2--lTR7cxvyjwxl8-54" edge="1">
          <mxGeometry width="50" height="50" relative="1" as="geometry">
            <mxPoint x="220" y="293.21" as="sourcePoint" />
            <mxPoint x="290" y="293.21" as="targetPoint" />
          </mxGeometry>
        </mxCell>
        <mxCell id="5z2d2--lTR7cxvyjwxl8-67" value="Out to Targets&lt;br&gt;Out to Blue" style="text;html=1;align=center;verticalAlign=middle;resizable=0;points=[];autosize=1;strokeColor=none;fillColor=none;" parent="5z2d2--lTR7cxvyjwxl8-54" vertex="1">
          <mxGeometry x="280" y="273.5" width="100" height="40" as="geometry" />
        </mxCell>
        <mxCell id="5z2d2--lTR7cxvyjwxl8-80" value="SUPPORT SERVER&lt;br style=&quot;font-size: 12px;&quot;&gt;10.72.0.11&lt;br&gt;4 CPU&lt;br&gt;4GB RAM&lt;br&gt;72GB HDD&lt;br&gt;Ubuntu 22.04" style="sketch=0;points=[[0,0,0],[0.25,0,0],[0.5,0,0],[0.75,0,0],[1,0,0],[0,1,0],[0.25,1,0],[0.5,1,0],[0.75,1,0],[1,1,0],[0,0.25,0],[0,0.5,0],[0,0.75,0],[1,0.25,0],[1,0.5,0],[1,0.75,0]];outlineConnect=0;gradientDirection=north;fillColor=#d5e8d4;strokeColor=#82b366;dashed=0;verticalLabelPosition=bottom;verticalAlign=top;align=center;html=1;fontSize=12;fontStyle=0;aspect=fixed;shape=mxgraph.aws4.resourceIcon;resIcon=mxgraph.aws4.ec2;hachureGap=4;jiggle=2;curveFitting=1;fontFamily=Lucida Console;shadow=1;" parent="5z2d2--lTR7cxvyjwxl8-54" vertex="1">
          <mxGeometry x="300" y="127" width="47" height="47" as="geometry" />
        </mxCell>
        <mxCell id="5z2d2--lTR7cxvyjwxl8-60" value="" style="edgeStyle=orthogonalEdgeStyle;rounded=0;orthogonalLoop=1;jettySize=auto;html=1;entryX=0.5;entryY=0;entryDx=0;entryDy=0;entryPerimeter=0;fillColor=#fa6800;strokeColor=#C73500;" parent="1" source="5z2d2--lTR7cxvyjwxl8-26" target="5z2d2--lTR7cxvyjwxl8-57" edge="1">
          <mxGeometry relative="1" as="geometry">
            <mxPoint x="1381.5" y="478.5" as="targetPoint" />
            <Array as="points">
              <mxPoint x="1125" y="470" />
            </Array>
          </mxGeometry>
        </mxCell>
        <mxCell id="5z2d2--lTR7cxvyjwxl8-61" value="4822" style="edgeLabel;html=1;align=center;verticalAlign=middle;resizable=0;points=[];" parent="5z2d2--lTR7cxvyjwxl8-60" vertex="1" connectable="0">
          <mxGeometry x="-0.4946" y="-2" relative="1" as="geometry">
            <mxPoint as="offset" />
          </mxGeometry>
        </mxCell>
        <mxCell id="5z2d2--lTR7cxvyjwxl8-68" value="Admin Zone (10.71.0.0/24)" style="swimlane;whiteSpace=wrap;html=1;hachureGap=4;fontFamily=Lucida Console;fontSize=20;fillColor=#e1d5e7;strokeColor=#9673a6;glass=1;fontColor=#363636;" parent="1" vertex="1">
          <mxGeometry x="995" y="900" width="325" height="210" as="geometry" />
        </mxCell>
        <mxCell id="5z2d2--lTR7cxvyjwxl8-69" value="ADMIN CONSOLE&lt;br style=&quot;font-size: 12px;&quot;&gt;10.71.0.10&lt;br&gt;2 CPU&lt;br&gt;2GB RAM&lt;br&gt;72GB HDD&lt;br&gt;CrunchBang++" style="sketch=0;points=[[0.015,0.015,0],[0.985,0.015,0],[0.985,0.985,0],[0.015,0.985,0],[0.25,0,0],[0.5,0,0],[0.75,0,0],[1,0.25,0],[1,0.5,0],[1,0.75,0],[0.75,1,0],[0.5,1,0],[0.25,1,0],[0,0.75,0],[0,0.5,0],[0,0.25,0]];verticalLabelPosition=bottom;html=1;verticalAlign=top;aspect=fixed;align=center;pointerEvents=1;shape=mxgraph.cisco19.rect;prIcon=virtual_desktop_service;fillColor=#e1d5e7;strokeColor=#9673a6;hachureGap=4;jiggle=2;curveFitting=1;fontFamily=Lucida Console;fontSize=12;shadow=1;" parent="5z2d2--lTR7cxvyjwxl8-68" vertex="1">
          <mxGeometry x="139" y="50" width="47" height="36.72" as="geometry" />
        </mxCell>
        <mxCell id="5z2d2--lTR7cxvyjwxl8-70" value="" style="shape=flexArrow;endArrow=classic;html=1;rounded=0;" parent="5z2d2--lTR7cxvyjwxl8-68" edge="1">
          <mxGeometry width="50" height="50" relative="1" as="geometry">
            <mxPoint x="139" y="68.01999999999998" as="sourcePoint" />
            <mxPoint x="-25" y="70" as="targetPoint" />
          </mxGeometry>
        </mxCell>
        <mxCell id="5z2d2--lTR7cxvyjwxl8-71" style="edgeStyle=orthogonalEdgeStyle;rounded=0;orthogonalLoop=1;jettySize=auto;html=1;exitX=1;exitY=0.5;exitDx=0;exitDy=0;exitPerimeter=0;fillColor=#e51400;strokeColor=#B20000;" parent="1" source="5z2d2--lTR7cxvyjwxl8-57" target="5z2d2--lTR7cxvyjwxl8-26" edge="1">
          <mxGeometry relative="1" as="geometry" />
        </mxCell>
        <mxCell id="5z2d2--lTR7cxvyjwxl8-72" value="22, 3389" style="edgeLabel;html=1;align=center;verticalAlign=middle;resizable=0;points=[];" parent="5z2d2--lTR7cxvyjwxl8-71" vertex="1" connectable="0">
          <mxGeometry x="-0.3932" y="1" relative="1" as="geometry">
            <mxPoint as="offset" />
          </mxGeometry>
        </mxCell>
        <mxCell id="5z2d2--lTR7cxvyjwxl8-74" value="" style="edgeStyle=orthogonalEdgeStyle;rounded=0;orthogonalLoop=1;jettySize=auto;html=1;entryX=1;entryY=0.5;entryDx=0;entryDy=0;entryPerimeter=0;fillColor=#e51400;strokeColor=#B20000;" parent="1" target="5z2d2--lTR7cxvyjwxl8-69" edge="1" source="5z2d2--lTR7cxvyjwxl8-26">
          <mxGeometry relative="1" as="geometry">
            <mxPoint x="1414" y="489.9999999999999" as="sourcePoint" />
            <mxPoint x="1170" y="968.3600000000001" as="targetPoint" />
            <Array as="points">
              <mxPoint x="1349" y="500" />
              <mxPoint x="1349" y="968" />
            </Array>
          </mxGeometry>
        </mxCell>
        <mxCell id="5z2d2--lTR7cxvyjwxl8-75" value="22, 3389" style="edgeLabel;html=1;align=center;verticalAlign=middle;resizable=0;points=[];" parent="5z2d2--lTR7cxvyjwxl8-74" vertex="1" connectable="0">
          <mxGeometry x="-0.2988" y="1" relative="1" as="geometry">
            <mxPoint as="offset" />
          </mxGeometry>
        </mxCell>
        <mxCell id="5z2d2--lTR7cxvyjwxl8-76" value="Out to ALL" style="text;html=1;align=center;verticalAlign=middle;resizable=0;points=[];autosize=1;strokeColor=none;fillColor=none;" parent="1" vertex="1">
          <mxGeometry x="900" y="955" width="80" height="30" as="geometry" />
        </mxCell>
        <mxCell id="5z2d2--lTR7cxvyjwxl8-77" value="24 Port Switch" style="outlineConnect=0;dashed=0;verticalLabelPosition=bottom;verticalAlign=top;align=center;html=1;shape=mxgraph.aws3.stack_aws_cloudformation;fillColor=#F2CC8F;strokeColor=#E07A5F;labelBackgroundColor=none;fontColor=#393C56;" parent="1" vertex="1">
          <mxGeometry x="1565" y="270" width="50" height="48.5" as="geometry" />
        </mxCell>
        <mxCell id="5z2d2--lTR7cxvyjwxl8-78" value="24 Port Switch" style="outlineConnect=0;dashed=0;verticalLabelPosition=bottom;verticalAlign=top;align=center;html=1;shape=mxgraph.aws3.stack_aws_cloudformation;fillColor=#F2CC8F;strokeColor=#E07A5F;labelBackgroundColor=none;fontColor=#FCFFFE;" parent="1" vertex="1">
          <mxGeometry x="1565" y="270" width="50" height="48.5" as="geometry" />
        </mxCell>
        <mxCell id="5z2d2--lTR7cxvyjwxl8-79" value="UDM PRO" style="sketch=0;aspect=fixed;pointerEvents=1;shadow=0;dashed=0;html=1;strokeColor=#E07A5F;labelPosition=center;verticalLabelPosition=bottom;verticalAlign=top;align=center;fillColor=#F2CC8F;shape=mxgraph.mscae.enterprise.firewall;labelBackgroundColor=none;fontColor=#FCFFFE;" parent="1" vertex="1">
          <mxGeometry x="1565" y="153" width="50" height="44" as="geometry" />
        </mxCell>
      </root>
    </mxGraphModel>
  </diagram>
</mxfile>
